<svg width="130" height="110" viewBox="0 0 130 110" fill="none" xmlns="http://www.w3.org/2000/svg">
<path d="M56.1085 11.8732C53.4665 11.6776 50.8409 12.3781 48.8092 13.8206C46.7776 15.263 45.5063 17.3293 45.2752 19.5649C45.0441 21.8005 45.8719 24.0222 47.5767 25.7413C49.2814 27.4603 51.7234 28.536 54.3654 28.7316L64.3272 29.469L65.1988 21.0398C65.4299 18.8043 64.6021 16.5826 62.8973 14.8635C61.1926 13.1444 58.7506 12.0688 56.1085 11.8732ZM53.7859 34.337L27.1879 32.368C24.5459 32.1724 21.9202 32.8729 19.8886 34.3154C17.8569 35.7579 16.5857 37.8242 16.3546 40.0597C16.1234 42.2953 16.9513 44.517 18.656 46.2361C20.3608 47.9552 22.8028 49.0308 25.4448 49.2264L52.0428 51.1954C54.6848 51.391 57.3105 50.6905 59.3421 49.248C61.3737 47.8055 62.645 45.7392 62.8761 43.5037C63.1073 41.2681 62.2794 39.0464 60.5746 37.3273C58.8699 35.6082 56.4279 34.5326 53.7859 34.337Z" fill="#C1C0FF"/>
<path d="M115.973 47.4343C116.204 45.1988 115.376 42.9771 113.671 41.258C111.966 39.5389 109.524 38.4633 106.882 38.2677C104.24 38.0721 101.615 38.7726 99.583 40.2151C97.5514 41.6576 96.2802 43.7239 96.049 45.9594L95.1775 54.3886L105.139 55.1261C107.781 55.3217 110.407 54.6212 112.439 53.1787C114.47 51.7362 115.741 49.6699 115.973 47.4343ZM89.4742 45.4727L91.7969 23.0089C92.028 20.7733 91.2002 18.5516 89.4954 16.8325C87.7907 15.1134 85.3487 14.0378 82.7067 13.8422C80.0646 13.6466 77.439 14.3471 75.4073 15.7896C73.3757 17.2321 72.1045 19.2984 71.8733 21.5339L69.5507 43.9978C69.3195 46.2333 70.1474 48.455 71.8521 50.1741C73.5569 51.8932 75.9989 52.9689 78.6409 53.1644C81.2829 53.36 83.9086 52.6595 85.9402 51.2171C87.9719 49.7746 89.2431 47.7083 89.4742 45.4727Z" fill="#A2A1FF"/>
<path d="M73.8916 98.1267C76.5336 98.3223 79.1592 97.6218 81.1909 96.1793C83.2225 94.7368 84.4937 92.6705 84.7249 90.4349C84.956 88.1994 84.1282 85.9777 82.4234 84.2586C80.7187 82.5395 78.2767 81.4638 75.6346 81.2683L65.6729 80.5308L64.8013 88.96C64.5702 91.1956 65.398 93.4173 67.1028 95.1363C68.8075 96.8554 71.2495 97.9311 73.8916 98.1267ZM76.2142 75.6628L102.812 77.6318C105.454 77.8274 108.08 77.1269 110.112 75.6845C112.143 74.242 113.414 72.1757 113.646 69.9401C113.877 67.7045 113.049 65.4828 111.344 63.7638C109.639 62.0447 107.197 60.969 104.555 60.7734L77.9573 58.8044C75.3153 58.6088 72.6896 59.3093 70.658 60.7518C68.6264 62.1943 67.3551 64.2606 67.124 66.4962C66.8928 68.7317 67.7207 70.9534 69.4254 72.6725C71.1302 74.3916 73.5722 75.4672 76.2142 75.6628Z" fill="#8382FF"/>
<path d="M14.0276 62.5655C13.7964 64.8011 14.6243 67.0228 16.329 68.7418C18.0338 70.4609 20.4758 71.5366 23.1178 71.7322C25.7598 71.9278 28.3855 71.2273 30.4171 69.7848C32.4488 68.3423 33.72 66.276 33.9511 64.0404L34.8227 55.6112L24.8609 54.8738C22.2189 54.6782 19.5932 55.3787 17.5616 56.8211C15.5299 58.2636 14.2587 60.3299 14.0276 62.5655ZM40.5259 64.5271L38.2033 86.991C37.9721 89.2265 38.8 91.4482 40.5047 93.1673C42.2095 94.8864 44.6515 95.9621 47.2935 96.1576C49.9355 96.3532 52.5612 95.6527 54.5928 94.2103C56.6245 92.7678 57.8957 90.7015 58.1268 88.4659L60.4495 66.0021C60.6806 63.7665 59.8528 61.5448 58.148 59.8257C56.4433 58.1066 54.0013 57.031 51.3592 56.8354C48.7172 56.6398 46.0916 57.3403 44.0599 58.7828C42.0283 60.2253 40.7571 62.2916 40.5259 64.5271Z" fill="#6563FF"/>
</svg>
