<svg width="69" height="82" viewBox="0 0 69 82" fill="none" xmlns="http://www.w3.org/2000/svg">
<path d="M34.9854 40.8325C45.2575 41.0381 53.504 32.4322 53.7273 21.2737C53.9507 10.1152 46.0551 1.18631 35.783 0.980711C25.5108 0.775115 17.2644 9.38097 17.041 20.5395C16.8177 31.698 24.7132 40.6269 34.9854 40.8325ZM68.4017 76.5849C64.0393 56.1651 45.2176 43.0307 26.4039 47.8369C13.8588 51.1739 3.74613 61.3371 0.165197 75.2192C-0.241548 77.2044 0.811183 79.6176 3.00438 80.0601C3.37125 80.0675 3.73811 80.0748 3.73811 80.0748L64.6374 81.2937C66.8385 81.3378 68.3379 79.7731 68.3857 77.382C68.3937 76.9834 68.4017 76.5849 68.4017 76.5849Z" fill="#0E4DA4"/>
</svg>
