<svg width="76" height="74" viewBox="0 0 76 74" fill="none" xmlns="http://www.w3.org/2000/svg">
<path d="M23.75 29.6H28.5C29.7598 29.6 30.968 29.2102 31.8588 28.5163C32.7496 27.8224 33.25 26.8813 33.25 25.9C33.25 24.9187 32.7496 23.9776 31.8588 23.2837C30.968 22.5898 29.7598 22.2 28.5 22.2H23.75C22.4902 22.2 21.282 22.5898 20.3912 23.2837C19.5004 23.9776 19 24.9187 19 25.9C19 26.8813 19.5004 27.8224 20.3912 28.5163C21.282 29.2102 22.4902 29.6 23.75 29.6ZM23.75 37C22.4902 37 21.282 37.3898 20.3912 38.0837C19.5004 38.7776 19 39.7187 19 40.7C19 41.6813 19.5004 42.6224 20.3912 43.3163C21.282 44.0102 22.4902 44.4 23.75 44.4H52.25C53.5098 44.4 54.718 44.0102 55.6088 43.3163C56.4996 42.6224 57 41.6813 57 40.7C57 39.7187 56.4996 38.7776 55.6088 38.0837C54.718 37.3898 53.5098 37 52.25 37H23.75ZM76 25.678C75.9505 25.3381 75.855 25.0032 75.715 24.679V24.346C75.4866 23.9656 75.182 23.6159 74.8125 23.31L46.3125 1.11C45.9198 0.8222 45.4709 0.5849 44.9825 0.407C44.8407 0.391312 44.6968 0.391312 44.555 0.407C44.0725 0.191443 43.5396 0.0530736 42.9875 0H14.25C10.4707 0 6.84612 1.16946 4.17373 3.25112C1.50134 5.33277 0 8.1561 0 11.1V62.9C0 65.8439 1.50134 68.6672 4.17373 70.7489C6.84612 72.8305 10.4707 74 14.25 74H61.75C65.5293 74 69.1539 72.8305 71.8263 70.7489C74.4987 68.6672 76 65.8439 76 62.9V25.9C76 25.9 76 25.9 76 25.678ZM47.5 12.617L59.8025 22.2H52.25C50.9902 22.2 49.782 21.8102 48.8912 21.1163C48.0004 20.4224 47.5 19.4813 47.5 18.5V12.617ZM66.5 62.9C66.5 63.8813 65.9996 64.8224 65.1088 65.5163C64.218 66.2102 63.0098 66.6 61.75 66.6H14.25C12.9902 66.6 11.782 66.2102 10.8912 65.5163C10.0004 64.8224 9.5 63.8813 9.5 62.9V11.1C9.5 10.1187 10.0004 9.17759 10.8912 8.48371C11.782 7.78982 12.9902 7.4 14.25 7.4H38V18.5C38 21.4439 39.5013 24.2672 42.1737 26.3489C44.8461 28.4305 48.4707 29.6 52.25 29.6H66.5V62.9ZM52.25 51.8H23.75C22.4902 51.8 21.282 52.1898 20.3912 52.8837C19.5004 53.5776 19 54.5187 19 55.5C19 56.4813 19.5004 57.4224 20.3912 58.1163C21.282 58.8102 22.4902 59.2 23.75 59.2H52.25C53.5098 59.2 54.718 58.8102 55.6088 58.1163C56.4996 57.4224 57 56.4813 57 55.5C57 54.5187 56.4996 53.5776 55.6088 52.8837C54.718 52.1898 53.5098 51.8 52.25 51.8Z" fill="black"/>
</svg>
